<?xml version="1.0" encoding="UTF-8" standalone="no"?>
<svg
   version="1.1"
   viewBox="0 0 320 270"
   id="svg49"
   sodipodi:docname="istockphoto-1041187258-612x612.svg"
   width="320"
   height="270"
   inkscape:version="1.3.2 (091e20e, 2023-11-25)"
   xmlns:inkscape="http://www.inkscape.org/namespaces/inkscape"
   xmlns:sodipodi="http://sodipodi.sourceforge.net/DTD/sodipodi-0.dtd"
   xmlns="http://www.w3.org/2000/svg"
   xmlns:svg="http://www.w3.org/2000/svg">
  <defs
     id="defs49" />
  <sodipodi:namedview
     id="namedview49"
     pagecolor="#ffffff"
     bordercolor="#000000"
     borderopacity="0.25"
     inkscape:showpageshadow="2"
     inkscape:pageopacity="0.0"
     inkscape:pagecheckerboard="0"
     inkscape:deskcolor="#d1d1d1"
     inkscape:zoom="1.1813725"
     inkscape:cx="306"
     inkscape:cy="305.57676"
     inkscape:window-width="1848"
     inkscape:window-height="1183"
     inkscape:window-x="478"
     inkscape:window-y="83"
     inkscape:window-maximized="0"
     inkscape:current-layer="svg49" />
  <path
     fill="#000000"
     d="m 155.57664,50.982447 q -12.77,0.03 -26.1,0.02 -1.3,0 -2.58,-0.37 a 1.14,1.12 85.2 0 1 -0.73,-0.63 q -0.72,-1.67 -0.71,-3.49 0.06,-8.67 0,-17.73 c -0.04,-7.52 3.66,-12.77 10.81,-15.08 q 39.37,-12.73000007 77.74,0.23 6.07,2.05 8.79,7.27 1.59,3.04 1.45,8.88 -0.22,9.66 -0.06,18.04 a 2.81,2.81 0 0 1 -2.81,2.87 l -27.23,0.01 q -0.53,0 -0.53,0.52 l 0.01,24.13 q 0,0.67 0.67,0.68 l 4.32,0.06 a 2.83,2.83 0 0 1 2.79,2.83 V 223.74245 a 0.51,0.5 0.6 0 0 0.5,0.5 c 2.38,0.04 8.63,-1.11 8.66,2.92 q 0.11,17.04 -0.03,32.15 -0.03,3.28 -3.31,3.28 l -65.14,-0.01 a 2.92,2.93 0 0 1 -2.92,-2.93 q 0.01,-15.39 -0.02,-32.17 0,-3.04 3.04,-3.18 2.75,-0.13 5.24,0 0.79,0.04 0.8,-0.76 0.05,-69.06 0.06,-144.040003 c 0,-3.78 4.81,-3.36 7.33,-3.02 a 0.48,0.47 3.7 0 0 0.54,-0.47 l 0.01,-24.44 q 0.01,-0.6 -0.59,-0.59 z"
     id="path2" />
  <path
     fill="#000000"
     d="m 80.236643,16.172447 a 4.59,4.59 0 0 1 -4.59,4.59 4.59,4.59 0 0 1 -4.59,-4.59 4.59,4.59 0 0 1 4.59,-4.59 4.59,4.59 0 0 1 4.59,4.59 z"
     id="path3" />
  <path
     fill="#000000"
     d="m 278.68664,16.162447 a 4.58,4.58 0 0 1 -4.58,4.58 4.58,4.58 0 0 1 -4.58,-4.58 4.58,4.58 0 0 1 4.58,-4.58 4.58,4.58 0 0 1 4.58,4.58 z"
     id="path4" />
  <path
     fill="#ffffff"
     d="m 212.16664,19.582447 c 3.47,1.15 6.03,4.04 6.02,7.74 q -0.03,9.28 -0.02,17.24 a 0.49,0.49 0 0 1 -0.49,0.49 h -85.74 a 0.33,0.33 0 0 1 -0.33,-0.32 q -0.03,-8.06 -0.07,-17.05 c -0.01,-3.93 2.33,-6.83 5.92,-8.03 q 37.2,-12.4400001 74.71,-0.07 z"
     id="path5" />
  <path
     fill="#000000"
     d="m 93.246643,29.202447 a 4.58,4.58 0 0 1 -4.58,4.58 4.58,4.58 0 0 1 -4.58,-4.58 4.58,4.58 0 0 1 4.58,-4.58 4.58,4.58 0 0 1 4.58,4.58 z"
     id="path6" />
  <path
     fill="#000000"
     d="m 265.67664,29.202447 a 4.58,4.58 0 0 1 -4.58,4.58 4.58,4.58 0 0 1 -4.58,-4.58 4.58,4.58 0 0 1 4.58,-4.58 4.58,4.58 0 0 1 4.58,4.58 z"
     id="path7" />
  <path
     fill="#000000"
     d="m 106.28664,42.202447 a 4.6,4.6 0 0 1 -4.6,4.6 4.6,4.6 0 0 1 -4.599997,-4.6 4.6,4.6 0 0 1 4.599997,-4.6 4.6,4.6 0 0 1 4.6,4.6 z"
     id="path8" />
  <path
     fill="#000000"
     d="m 252.66664,42.202447 a 4.59,4.59 0 0 1 -4.59,4.59 4.59,4.59 0 0 1 -4.59,-4.59 4.59,4.59 0 0 1 4.59,-4.59 4.59,4.59 0 0 1 4.59,4.59 z"
     id="path9" />
  <path
     fill="#000000"
     d="m 80.236643,42.202447 a 4.59,4.59 0 0 1 -4.59,4.59 4.59,4.59 0 0 1 -4.59,-4.59 4.59,4.59 0 0 1 4.59,-4.59 4.59,4.59 0 0 1 4.59,4.59 z"
     id="path10" />
  <path
     fill="#000000"
     d="m 278.69664,42.212447 a 4.58,4.58 0 0 1 -4.58,4.58 4.58,4.58 0 0 1 -4.58,-4.58 4.58,4.58 0 0 1 4.58,-4.58 4.58,4.58 0 0 1 4.58,4.58 z"
     id="path11" />
  <path
     fill="#000000"
     d="m 93.256643,55.242447 a 4.58,4.58 0 0 1 -4.58,4.58 4.58,4.58 0 0 1 -4.58,-4.58 4.58,4.58 0 0 1 4.58,-4.58 4.58,4.58 0 0 1 4.58,4.58 z"
     id="path12" />
  <path
     fill="#000000"
     d="m 119.29664,55.232447 a 4.59,4.59 0 0 1 -4.59,4.59 4.59,4.59 0 0 1 -4.59,-4.59 4.59,4.59 0 0 1 4.59,-4.59 4.59,4.59 0 0 1 4.59,4.59 z"
     id="path13" />
  <path
     fill="#ffffff"
     d="m 187.52664,75.832447 a 0.53,0.53 0 0 1 -0.53,0.53 h -24.3 a 0.53,0.53 0 0 1 -0.53,-0.53 v -24.32 a 0.53,0.53 0 0 1 0.53,-0.53 h 24.3 a 0.53,0.53 0 0 1 0.53,0.53 z"
     id="path14" />
  <path
     fill="#000000"
     d="m 239.60664,55.242447 a 4.57,4.57 0 0 1 -4.57,4.57 4.57,4.57 0 0 1 -4.57,-4.57 4.57,4.57 0 0 1 4.57,-4.57 4.57,4.57 0 0 1 4.57,4.57 z"
     id="path15" />
  <path
     fill="#000000"
     d="m 265.70664,55.222447 a 4.6,4.6 0 0 1 -4.6,4.6 4.6,4.6 0 0 1 -4.6,-4.6 4.6,4.6 0 0 1 4.6,-4.6 4.6,4.6 0 0 1 4.6,4.6 z"
     id="path16" />
  <path
     fill="#000000"
     d="m 278.69664,68.252447 a 4.59,4.59 0 0 1 -4.59,4.59 4.59,4.59 0 0 1 -4.59,-4.59 4.59,4.59 0 0 1 4.59,-4.59 4.59,4.59 0 0 1 4.59,4.59 z"
     id="path17" />
  <path
     fill="#000000"
     d="m 80.246643,68.252447 a 4.6,4.6 0 0 1 -4.6,4.6 4.6,4.6 0 0 1 -4.6,-4.6 4.6,4.6 0 0 1 4.6,-4.6 4.6,4.6 0 0 1 4.6,4.6 z"
     id="path18" />
  <path
     fill="#000000"
     d="m 106.28664,68.252447 a 4.6,4.6 0 0 1 -4.6,4.6 4.6,4.6 0 0 1 -4.599997,-4.6 4.6,4.6 0 0 1 4.599997,-4.6 4.6,4.6 0 0 1 4.6,4.6 z"
     id="path19" />
  <path
     fill="#000000"
     d="m 132.28664,68.242447 a 4.56,4.56 0 0 1 -4.56,4.56 4.56,4.56 0 0 1 -4.56,-4.56 4.56,4.56 0 0 1 4.56,-4.56 4.56,4.56 0 0 1 4.56,4.56 z"
     id="path20" />
  <path
     fill="#000000"
     d="m 226.62664,68.252447 a 4.58,4.58 0 0 1 -4.58,4.58 4.58,4.58 0 0 1 -4.58,-4.58 4.58,4.58 0 0 1 4.58,-4.58 4.58,4.58 0 0 1 4.58,4.58 z"
     id="path21" />
  <path
     fill="#000000"
     d="m 252.68664,68.242447 a 4.6,4.6 0 0 1 -4.6,4.6 4.6,4.6 0 0 1 -4.6,-4.6 4.6,4.6 0 0 1 4.6,-4.6 4.6,4.6 0 0 1 4.6,4.6 z"
     id="path22" />
  <path
     fill="#000000"
     d="m 93.276643,81.252447 a 4.59,4.59 0 0 1 -4.59,4.59 4.59,4.59 0 0 1 -4.59,-4.59 4.59,4.59 0 0 1 4.59,-4.59 4.59,4.59 0 0 1 4.59,4.59 z"
     id="path23" />
  <path
     fill="#000000"
     d="m 119.27664,81.272447 a 4.58,4.58 0 0 1 -4.58,4.58 4.58,4.58 0 0 1 -4.58,-4.58 4.58,4.58 0 0 1 4.58,-4.58 4.58,4.58 0 0 1 4.58,4.58 z"
     id="path24" />
  <path
     fill="#000000"
     d="m 239.62664,81.272447 a 4.58,4.58 0 0 1 -4.58,4.58 4.58,4.58 0 0 1 -4.58,-4.58 4.58,4.58 0 0 1 4.58,-4.58 4.58,4.58 0 0 1 4.58,4.58 z"
     id="path25" />
  <path
     fill="#000000"
     d="m 265.68664,81.252447 a 4.6,4.6 0 0 1 -4.6,4.6 4.6,4.6 0 0 1 -4.6,-4.6 4.6,4.6 0 0 1 4.6,-4.6 4.6,4.6 0 0 1 4.6,4.6 z"
     id="path26" />
  <path
     fill="#ffffff"
     d="m 195.40664,223.74245 a 0.51,0.51 0 0 1 -0.51,0.51 h -40.16 a 0.51,0.51 0 0 1 -0.51,-0.51 V 82.942447 a 0.51,0.51 0 0 1 0.51,-0.51 h 40.16 a 0.51,0.51 0 0 1 0.51,0.51 z"
     id="path27" />
  <path
     fill="#000000"
     d="m 80.226643,94.302447 a 4.58,4.58 0 0 1 -4.58,4.58 4.58,4.58 0 0 1 -4.58,-4.58 4.58,4.58 0 0 1 4.58,-4.58 4.58,4.58 0 0 1 4.58,4.58 z"
     id="path28" />
  <path
     fill="#000000"
     d="m 106.26664,94.292447 a 4.58,4.58 0 0 1 -4.58,4.58 4.58,4.58 0 0 1 -4.579997,-4.58 4.58,4.58 0 0 1 4.579997,-4.58 4.58,4.58 0 0 1 4.58,4.58 z"
     id="path29" />
  <path
     fill="#000000"
     d="m 252.66664,94.282447 a 4.59,4.59 0 0 1 -4.59,4.59 4.59,4.59 0 0 1 -4.59,-4.59 4.59,4.59 0 0 1 4.59,-4.59 4.59,4.59 0 0 1 4.59,4.59 z"
     id="path30" />
  <path
     fill="#000000"
     d="m 278.66664,94.282447 a 4.57,4.57 0 0 1 -4.57,4.57 4.57,4.57 0 0 1 -4.57,-4.57 4.57,4.57 0 0 1 4.57,-4.57 4.57,4.57 0 0 1 4.57,4.57 z"
     id="path31" />
  <path
     fill="#000000"
     d="m 93.266643,107.30245 a 4.58,4.58 0 0 1 -4.58,4.58 4.58,4.58 0 0 1 -4.58,-4.58 4.58,4.58 0 0 1 4.58,-4.58 4.58,4.58 0 0 1 4.58,4.58 z"
     id="path32" />
  <path
     fill="#000000"
     d="m 265.67664,107.30245 a 4.58,4.58 0 0 1 -4.58,4.58 4.58,4.58 0 0 1 -4.58,-4.58 4.58,4.58 0 0 1 4.58,-4.58 4.58,4.58 0 0 1 4.58,4.58 z"
     id="path33" />
  <path
     fill="#000000"
     d="m 80.216643,120.31245 a 4.57,4.57 0 0 1 -4.57,4.57 4.57,4.57 0 0 1 -4.57,-4.57 4.57,4.57 0 0 1 4.57,-4.57 4.57,4.57 0 0 1 4.57,4.57 z"
     id="path34" />
  <path
     fill="#000000"
     d="m 278.66664,120.31245 a 4.57,4.57 0 0 1 -4.57,4.57 4.57,4.57 0 0 1 -4.57,-4.57 4.57,4.57 0 0 1 4.57,-4.57 4.57,4.57 0 0 1 4.57,4.57 z"
     id="path35" />
  <path
     fill="#000000"
     d="m 79.976643,216.05245 q 1.16,-1.54 2.39,-3.15 c 6.98,-9.13 17.54,-14.93 29.109997,-17.03 2.17,-0.4 3.72,1.31 3.57,3.46 a 2.45,2.45 0 0 1 -1.31,1.99 c -20.639997,10.76 -28.549997,35.27 -28.549997,57.95 q 0,3.34 -3.22,3.33 -15.4,-0.05 -30.41,0 -2.82,0 -3.41,-2.64 -5.72,-25.58 -19.05,-51.01 c -2.02,-3.86 2.25,-4.87 5.03,-4.67 11.31,0.82 19.75,16.86 23.6,26.31 q 0.97,2.38 0.99,-0.19 c 0.18,-24.39 8.82,-47.66 28.14,-63.13 2.63,-2.1 5.87,0.2 4.67,3.51 q -7.71,21.2 -11.94,45.1 -0.17,0.93 0.39,0.17 z"
     id="path36" />
  <path
     fill="#ffffff"
     d="m 66.406643,253.62245 q -0.78,-4.24 -1.18,-8.78 c -2.02,-22.71 1.67,-45.63 15.53,-63.27 q 1.07,-1.37 0.6,0.3 -9.11,32.02 -13.18,70.24 -0.24,2.32 0.63,4.02 0.27,0.51 -0.31,0.51 l -3.37,-0.01 q -1.07,-0.01 -0.25,-0.7 l 0.99,-0.83 a 1.56,1.58 64.6 0 0 0.54,-1.48 z"
     id="path37" />
  <path
     fill="#000000"
     d="m 279.54664,238.67245 q 0.23,0.78 0.54,0.03 c 5.31,-12.89 15.83,-30.13 29.6,-34.07 2.47,-0.7 4.65,1.77 3.4,4.09 q -13.22,24.72 -19.38,51.64 -0.51,2.25 -2.96,2.25 -11.45,0 -23.47,-0.03 a 2.66,2.66 0 0 1 -2.66,-2.65 c -0.12,-22.51 -7.25,-47.23 -28.44,-58.58 -3.03,-1.63 -1.22,-6.06 2.43,-5.39 20.48,3.8 33.75,18.46 39.47,37.82 q 0.74,2.48 1.47,4.89 z"
     id="path38" />
  <path
     fill="#ffffff"
     d="m 270.48664,255.96245 c -0.28,-15.24 -4.38,-31.54 -13.29,-43.98 q -2.46,-3.44 0.66,-0.59 c 11.71,10.66 17.13,26.75 17.84,42.38 0.03,0.72 0.26,1.46 0.68,2.06 q 0.58,0.82 -0.42,0.81 l -4.85,-0.07 q -0.61,0 -0.62,-0.61 z"
     id="path39" />
  <path
     fill="#ffffff"
     d="m 93.306643,211.04245 c -9.59,12.54 -13.68,29.37 -14.09,45.24 q -0.01,0.29 -0.3,0.29 l -5.36,0.09 q -0.49,0.01 -0.32,-0.46 1.19,-3.19 1.43,-7.26 c 0.78,-13.36 7.97,-30.4 18.3,-38.25 q 1.44,-1.09 0.34,0.35 z"
     id="path40" />
  <path
     fill="#ffffff"
     d="m 62.486643,256.38245 a 0.12,0.12 0 0 1 -0.07,0.22 l -8.24,0.03 q -0.58,0 -0.72,-0.56 -5.73,-22.99 -15.71,-43.47 -0.91,-1.87 0.68,-0.54 4.71,3.9 8.15,9.91 c 5.8,10.12 9.65,21.05 13.81,32 q 0.5,1.33 2.1,2.41 z"
     id="path41" />
  <path
     fill="#ffffff"
     d="m 281.35664,254.81245 c 2.12,-11.48 8.03,-23.23 14.82,-32.33 q 2.53,-3.38 5.57,-6.12 1.16,-1.04 0.51,0.38 -8.82,19.35 -13.72,39.36 a 0.61,0.6 6.1 0 1 -0.58,0.46 l -7.08,0.1 a 0.26,0.26 0 0 1 -0.2,-0.43 q 0.53,-0.6 0.68,-1.42 z"
     id="path42" />
  <path
     fill="#000000"
     d="m 26.726643,260.30245 c -1.14,-11.5 -3.22,-30.79 -16.8199996,-34.16 q -2.97,-0.74 -2.46,-3.71 0.25,-1.43 2.42,-2.1 a 2.62,2.66 44.6 0 1 1.4599996,-0.02 c 15.34,4.2 25.67,18.73 30.84,33.35 0.76,2.14 1.67,3.96 1.76,6.27 a 2.54,2.54 0 0 1 -2.54,2.65 l -12.15,-0.01 a 2.51,2.52 87.2 0 1 -2.51,-2.27 z"
     id="path43" />
  <path
     fill="#000000"
     d="m 124.22664,226.15245 c -11.4,2.82 -15.23,18.2 -16.21,28.66 q -0.25,2.65 -0.6,5.37 c -0.32,2.44 -2.12,2.37 -4.12,2.38 q -4.609997,0.02 -9.399997,0.07 c -3.03,0.03 -4.18,-1.67 -3.32,-4.68 4.61,-16.08 14.999997,-32.09 31.569997,-37.48 a 2.67,2.64 37.9 0 1 1.09,-0.13 q 3.11,0.27 3.46,1.84 0.72,3.18 -2.47,3.97 z"
     id="path44" />
  <path
     fill="#000000"
     d="m 227.88664,227.02245 q -1.57,-0.55 -3.13,-1.17 -2.5,-0.98 -1.61,-3.9 0.05,-0.19 0.17,-0.34 1.67,-2.06 4.37,-1.16 c 16.64,5.53 26.92,21.56 31.62,37.87 0.63,2.21 -0.24,4.2 -2.72,4.24 q -6.39,0.1 -11.76,0.01 c -1.62,-0.03 -2.61,-1.36 -2.69,-2.89 -0.51,-9.67 -3.52,-28.89 -14.25,-32.66 z"
     id="path45" />
  <path
     fill="#ffffff"
     d="m 204.53664,256.26245 a 0.36,0.36 0 0 1 -0.36,0.36 h -58.66 a 0.36,0.36 0 0 1 -0.36,-0.36 v -25.68 a 0.36,0.36 0 0 1 0.36,-0.36 h 58.66 a 0.36,0.36 0 0 1 0.36,0.36 z"
     id="path46" />
  <path
     fill="#ffffff"
     d="m 30.906643,243.87245 c 2.26,3.89 4.24,8.06 5.87,12.24 a 0.36,0.36 0 0 1 -0.34,0.49 l -3.51,0.03 q -0.46,0.01 -0.51,-0.45 -0.64,-6.24 -2.02,-12.11 -0.43,-1.83 0.51,-0.2 z"
     id="path47" />
  <path
     fill="#ffffff"
     d="m 97.376643,256.22245 q 2.629997,-6.66 5.909997,-12.39 0.55,-0.97 0.37,0.13 l -2.04,12.4 a 0.31,0.32 4.3 0 1 -0.31,0.27 l -3.699997,-0.07 a 0.25,0.25 0 0 1 -0.23,-0.34 z"
     id="path48" />
  <path
     fill="#ffffff"
     d="m 252.32664,256.31245 q 0.1,0.29 -0.2,0.29 l -3.65,0.03 a 0.38,0.37 85.5 0 1 -0.37,-0.32 l -2.05,-12.57 q -0.12,-0.73 0.29,-0.07 3.12,4.96 5.98,12.64 z"
     id="path49" />
</svg>
