<?xml version="1.0" encoding="UTF-8" standalone="no"?>
<!DOCTYPE svg PUBLIC "-//W3C//DTD SVG 1.0//EN" "http://www.w3.org/TR/2001/REC-SVG-20010904/DTD/svg10.dtd">
<svg xmlns="http://www.w3.org/2000/svg" version="1.0" viewBox="0.00 0.00 612.00 612.00">
<g stroke-width="2.00" fill="none" stroke-linecap="butt">
<path stroke="#808080" vector-effect="non-scaling-stroke" d="
  M 301.76 222.56
  L 301.75 247.00
  A 0.48 0.47 3.7 0 1 301.21 247.47
  C 298.69 247.13 293.88 246.71 293.88 250.49
  Q 293.87 325.47 293.82 394.53
  Q 293.81 395.33 293.02 395.29
  Q 290.53 395.16 287.78 395.29
  Q 284.74 395.43 284.74 398.47
  Q 284.77 415.25 284.76 430.64
  A 2.93 2.92 -90.0 0 0 287.68 433.57
  L 352.82 433.58
  Q 356.10 433.58 356.13 430.30
  Q 356.27 415.19 356.16 398.15
  C 356.13 394.12 349.88 395.27 347.50 395.23
  A 0.51 0.50 0.6 0 1 347.00 394.73
  L 347.00 250.21
  A 2.83 2.83 0.0 0 0 344.21 247.38
  L 339.89 247.32
  Q 339.22 247.31 339.22 246.64
  L 339.21 222.51
  Q 339.21 221.99 339.74 221.99
  L 366.97 221.98
  A 2.81 2.81 0.0 0 0 369.78 219.11
  Q 369.62 210.73 369.84 201.07
  Q 369.98 195.23 368.39 192.19
  Q 365.67 186.97 359.60 184.92
  Q 321.23 171.96 281.86 184.69
  C 274.71 187.00 271.01 192.25 271.05 199.77
  Q 271.11 208.83 271.05 217.50
  Q 271.04 219.32 271.76 220.99
  A 1.14 1.12 85.2 0 0 272.49 221.62
  Q 273.77 221.99 275.07 221.99
  Q 288.40 222.00 301.17 221.97
  Q 301.77 221.96 301.76 222.56"
/>
<path stroke="#808080" vector-effect="non-scaling-stroke" d="
  M 225.83 187.16
  A 4.59 4.59 0.0 0 0 221.24 182.57
  A 4.59 4.59 0.0 0 0 216.65 187.16
  A 4.59 4.59 0.0 0 0 221.24 191.75
  A 4.59 4.59 0.0 0 0 225.83 187.16"
/>
<path stroke="#808080" vector-effect="non-scaling-stroke" d="
  M 424.28 187.15
  A 4.58 4.58 0.0 0 0 419.70 182.57
  A 4.58 4.58 0.0 0 0 415.12 187.15
  A 4.58 4.58 0.0 0 0 419.70 191.73
  A 4.58 4.58 0.0 0 0 424.28 187.15"
/>
<path stroke="#808080" vector-effect="non-scaling-stroke" d="
  M 238.84 200.19
  A 4.58 4.58 0.0 0 0 234.26 195.61
  A 4.58 4.58 0.0 0 0 229.68 200.19
  A 4.58 4.58 0.0 0 0 234.26 204.77
  A 4.58 4.58 0.0 0 0 238.84 200.19"
/>
<path stroke="#808080" vector-effect="non-scaling-stroke" d="
  M 411.27 200.19
  A 4.58 4.58 0.0 0 0 406.69 195.61
  A 4.58 4.58 0.0 0 0 402.11 200.19
  A 4.58 4.58 0.0 0 0 406.69 204.77
  A 4.58 4.58 0.0 0 0 411.27 200.19"
/>
<path stroke="#808080" vector-effect="non-scaling-stroke" d="
  M 251.88 213.19
  A 4.60 4.60 0.0 0 0 247.28 208.59
  A 4.60 4.60 0.0 0 0 242.68 213.19
  A 4.60 4.60 0.0 0 0 247.28 217.79
  A 4.60 4.60 0.0 0 0 251.88 213.19"
/>
<path stroke="#808080" vector-effect="non-scaling-stroke" d="
  M 398.26 213.19
  A 4.59 4.59 0.0 0 0 393.67 208.60
  A 4.59 4.59 0.0 0 0 389.08 213.19
  A 4.59 4.59 0.0 0 0 393.67 217.78
  A 4.59 4.59 0.0 0 0 398.26 213.19"
/>
<path stroke="#808080" vector-effect="non-scaling-stroke" d="
  M 225.83 213.19
  A 4.59 4.59 0.0 0 0 221.24 208.60
  A 4.59 4.59 0.0 0 0 216.65 213.19
  A 4.59 4.59 0.0 0 0 221.24 217.78
  A 4.59 4.59 0.0 0 0 225.83 213.19"
/>
<path stroke="#808080" vector-effect="non-scaling-stroke" d="
  M 424.29 213.20
  A 4.58 4.58 0.0 0 0 419.71 208.62
  A 4.58 4.58 0.0 0 0 415.13 213.20
  A 4.58 4.58 0.0 0 0 419.71 217.78
  A 4.58 4.58 0.0 0 0 424.29 213.20"
/>
<path stroke="#808080" vector-effect="non-scaling-stroke" d="
  M 238.85 226.23
  A 4.58 4.58 0.0 0 0 234.27 221.65
  A 4.58 4.58 0.0 0 0 229.69 226.23
  A 4.58 4.58 0.0 0 0 234.27 230.81
  A 4.58 4.58 0.0 0 0 238.85 226.23"
/>
<path stroke="#808080" vector-effect="non-scaling-stroke" d="
  M 264.89 226.22
  A 4.59 4.59 0.0 0 0 260.30 221.63
  A 4.59 4.59 0.0 0 0 255.71 226.22
  A 4.59 4.59 0.0 0 0 260.30 230.81
  A 4.59 4.59 0.0 0 0 264.89 226.22"
/>
<path stroke="#808080" vector-effect="non-scaling-stroke" d="
  M 385.20 226.23
  A 4.57 4.57 0.0 0 0 380.63 221.66
  A 4.57 4.57 0.0 0 0 376.06 226.23
  A 4.57 4.57 0.0 0 0 380.63 230.80
  A 4.57 4.57 0.0 0 0 385.20 226.23"
/>
<path stroke="#808080" vector-effect="non-scaling-stroke" d="
  M 411.30 226.21
  A 4.60 4.60 0.0 0 0 406.70 221.61
  A 4.60 4.60 0.0 0 0 402.10 226.21
  A 4.60 4.60 0.0 0 0 406.70 230.81
  A 4.60 4.60 0.0 0 0 411.30 226.21"
/>
<path stroke="#808080" vector-effect="non-scaling-stroke" d="
  M 424.29 239.24
  A 4.59 4.59 0.0 0 0 419.70 234.65
  A 4.59 4.59 0.0 0 0 415.11 239.24
  A 4.59 4.59 0.0 0 0 419.70 243.83
  A 4.59 4.59 0.0 0 0 424.29 239.24"
/>
<path stroke="#808080" vector-effect="non-scaling-stroke" d="
  M 225.84 239.24
  A 4.60 4.60 0.0 0 0 221.24 234.64
  A 4.60 4.60 0.0 0 0 216.64 239.24
  A 4.60 4.60 0.0 0 0 221.24 243.84
  A 4.60 4.60 0.0 0 0 225.84 239.24"
/>
<path stroke="#808080" vector-effect="non-scaling-stroke" d="
  M 251.88 239.24
  A 4.60 4.60 0.0 0 0 247.28 234.64
  A 4.60 4.60 0.0 0 0 242.68 239.24
  A 4.60 4.60 0.0 0 0 247.28 243.84
  A 4.60 4.60 0.0 0 0 251.88 239.24"
/>
<path stroke="#808080" vector-effect="non-scaling-stroke" d="
  M 277.88 239.23
  A 4.56 4.56 0.0 0 0 273.32 234.67
  A 4.56 4.56 0.0 0 0 268.76 239.23
  A 4.56 4.56 0.0 0 0 273.32 243.79
  A 4.56 4.56 0.0 0 0 277.88 239.23"
/>
<path stroke="#808080" vector-effect="non-scaling-stroke" d="
  M 372.22 239.24
  A 4.58 4.58 0.0 0 0 367.64 234.66
  A 4.58 4.58 0.0 0 0 363.06 239.24
  A 4.58 4.58 0.0 0 0 367.64 243.82
  A 4.58 4.58 0.0 0 0 372.22 239.24"
/>
<path stroke="#808080" vector-effect="non-scaling-stroke" d="
  M 398.28 239.23
  A 4.60 4.60 0.0 0 0 393.68 234.63
  A 4.60 4.60 0.0 0 0 389.08 239.23
  A 4.60 4.60 0.0 0 0 393.68 243.83
  A 4.60 4.60 0.0 0 0 398.28 239.23"
/>
<path stroke="#808080" vector-effect="non-scaling-stroke" d="
  M 238.87 252.24
  A 4.59 4.59 0.0 0 0 234.28 247.65
  A 4.59 4.59 0.0 0 0 229.69 252.24
  A 4.59 4.59 0.0 0 0 234.28 256.83
  A 4.59 4.59 0.0 0 0 238.87 252.24"
/>
<path stroke="#808080" vector-effect="non-scaling-stroke" d="
  M 264.87 252.26
  A 4.58 4.58 0.0 0 0 260.29 247.68
  A 4.58 4.58 0.0 0 0 255.71 252.26
  A 4.58 4.58 0.0 0 0 260.29 256.84
  A 4.58 4.58 0.0 0 0 264.87 252.26"
/>
<path stroke="#808080" vector-effect="non-scaling-stroke" d="
  M 385.22 252.26
  A 4.58 4.58 0.0 0 0 380.64 247.68
  A 4.58 4.58 0.0 0 0 376.06 252.26
  A 4.58 4.58 0.0 0 0 380.64 256.84
  A 4.58 4.58 0.0 0 0 385.22 252.26"
/>
<path stroke="#808080" vector-effect="non-scaling-stroke" d="
  M 411.28 252.24
  A 4.60 4.60 0.0 0 0 406.68 247.64
  A 4.60 4.60 0.0 0 0 402.08 252.24
  A 4.60 4.60 0.0 0 0 406.68 256.84
  A 4.60 4.60 0.0 0 0 411.28 252.24"
/>
<path stroke="#808080" vector-effect="non-scaling-stroke" d="
  M 225.82 265.29
  A 4.58 4.58 0.0 0 0 221.24 260.71
  A 4.58 4.58 0.0 0 0 216.66 265.29
  A 4.58 4.58 0.0 0 0 221.24 269.87
  A 4.58 4.58 0.0 0 0 225.82 265.29"
/>
<path stroke="#808080" vector-effect="non-scaling-stroke" d="
  M 251.86 265.28
  A 4.58 4.58 0.0 0 0 247.28 260.70
  A 4.58 4.58 0.0 0 0 242.70 265.28
  A 4.58 4.58 0.0 0 0 247.28 269.86
  A 4.58 4.58 0.0 0 0 251.86 265.28"
/>
<path stroke="#808080" vector-effect="non-scaling-stroke" d="
  M 398.26 265.27
  A 4.59 4.59 0.0 0 0 393.67 260.68
  A 4.59 4.59 0.0 0 0 389.08 265.27
  A 4.59 4.59 0.0 0 0 393.67 269.86
  A 4.59 4.59 0.0 0 0 398.26 265.27"
/>
<path stroke="#808080" vector-effect="non-scaling-stroke" d="
  M 424.26 265.27
  A 4.57 4.57 0.0 0 0 419.69 260.70
  A 4.57 4.57 0.0 0 0 415.12 265.27
  A 4.57 4.57 0.0 0 0 419.69 269.84
  A 4.57 4.57 0.0 0 0 424.26 265.27"
/>
<path stroke="#808080" vector-effect="non-scaling-stroke" d="
  M 238.86 278.29
  A 4.58 4.58 0.0 0 0 234.28 273.71
  A 4.58 4.58 0.0 0 0 229.70 278.29
  A 4.58 4.58 0.0 0 0 234.28 282.87
  A 4.58 4.58 0.0 0 0 238.86 278.29"
/>
<path stroke="#808080" vector-effect="non-scaling-stroke" d="
  M 411.27 278.29
  A 4.58 4.58 0.0 0 0 406.69 273.71
  A 4.58 4.58 0.0 0 0 402.11 278.29
  A 4.58 4.58 0.0 0 0 406.69 282.87
  A 4.58 4.58 0.0 0 0 411.27 278.29"
/>
<path stroke="#808080" vector-effect="non-scaling-stroke" d="
  M 225.81 291.30
  A 4.57 4.57 0.0 0 0 221.24 286.73
  A 4.57 4.57 0.0 0 0 216.67 291.30
  A 4.57 4.57 0.0 0 0 221.24 295.87
  A 4.57 4.57 0.0 0 0 225.81 291.30"
/>
<path stroke="#808080" vector-effect="non-scaling-stroke" d="
  M 424.26 291.30
  A 4.57 4.57 0.0 0 0 419.69 286.73
  A 4.57 4.57 0.0 0 0 415.12 291.30
  A 4.57 4.57 0.0 0 0 419.69 295.87
  A 4.57 4.57 0.0 0 0 424.26 291.30"
/>
<path stroke="#808080" vector-effect="non-scaling-stroke" d="
  M 225.18 386.87
  Q 229.41 362.97 237.12 341.77
  C 238.32 338.46 235.08 336.16 232.45 338.26
  C 213.13 353.73 204.49 377.00 204.31 401.39
  Q 204.29 403.96 203.32 401.58
  C 199.47 392.13 191.03 376.09 179.72 375.27
  C 176.94 375.07 172.67 376.08 174.69 379.94
  Q 188.02 405.37 193.74 430.95
  Q 194.33 433.59 197.15 433.59
  Q 212.16 433.54 227.56 433.59
  Q 230.78 433.60 230.78 430.26
  C 230.78 407.58 238.69 383.07 259.33 372.31
  A 2.45 2.45 0.0 0 0 260.64 370.32
  C 260.79 368.17 259.24 366.46 257.07 366.86
  C 245.50 368.96 234.94 374.76 227.96 383.89
  Q 226.73 385.50 225.57 387.04
  Q 225.01 387.80 225.18 386.87"
/>
<path stroke="#808080" vector-effect="non-scaling-stroke" d="
  M 425.14 409.66
  Q 424.41 407.25 423.67 404.77
  C 417.95 385.41 404.68 370.75 384.20 366.95
  C 380.55 366.28 378.74 370.71 381.77 372.34
  C 402.96 383.69 410.09 408.41 410.21 430.92
  A 2.66 2.66 0.0 0 0 412.87 433.57
  Q 424.89 433.60 436.34 433.60
  Q 438.79 433.60 439.30 431.35
  Q 445.46 404.43 458.68 379.71
  C 459.93 377.39 457.75 374.92 455.28 375.62
  C 441.51 379.56 430.99 396.80 425.68 409.69
  Q 425.37 410.44 425.14 409.66"
/>
<path stroke="#808080" vector-effect="non-scaling-stroke" d="
  M 155.50 397.13
  C 169.10 400.50 171.18 419.79 172.32 431.29
  A 2.52 2.51 -2.8 0 0 174.83 433.56
  L 186.98 433.57
  A 2.54 2.54 0.0 0 0 189.52 430.92
  C 189.43 428.61 188.52 426.79 187.76 424.65
  C 182.59 410.03 172.26 395.50 156.92 391.30
  A 2.66 2.62 -45.4 0 0 155.46 391.32
  Q 153.29 391.99 153.04 393.42
  Q 152.53 396.39 155.50 397.13"
/>
<path stroke="#808080" vector-effect="non-scaling-stroke" d="
  M 253.61 425.80
  C 254.59 415.34 258.42 399.96 269.82 397.14
  Q 273.01 396.35 272.29 393.17
  Q 271.94 391.60 268.83 391.33
  A 2.67 2.64 37.9 0 0 267.74 391.46
  C 251.17 396.85 240.78 412.86 236.17 428.94
  C 235.31 431.95 236.46 433.65 239.49 433.62
  Q 244.28 433.57 248.89 433.55
  C 250.89 433.54 252.69 433.61 253.01 431.17
  Q 253.36 428.45 253.61 425.80"
/>
<path stroke="#808080" vector-effect="non-scaling-stroke" d="
  M 373.48 398.01
  C 384.21 401.78 387.22 421.00 387.73 430.67
  C 387.81 432.20 388.80 433.53 390.42 433.56
  Q 395.79 433.65 402.18 433.55
  C 404.66 433.51 405.53 431.52 404.90 429.31
  C 400.20 413.00 389.92 396.97 373.28 391.44
  Q 370.58 390.54 368.91 392.60
  Q 368.79 392.75 368.74 392.94
  Q 367.85 395.86 370.35 396.84
  Q 371.91 397.46 373.48 398.01"
/>
<path stroke="#808080" vector-effect="non-scaling-stroke" d="
  M 357.76 190.57
  Q 320.25 178.20 283.05 190.64
  C 279.46 191.84 277.12 194.74 277.13 198.67
  Q 277.17 207.66 277.20 215.72
  A 0.33 0.33 0.0 0 0 277.53 216.04
  L 363.27 216.04
  A 0.49 0.49 0.0 0 0 363.76 215.55
  Q 363.75 207.59 363.78 198.31
  C 363.79 194.61 361.23 191.72 357.76 190.57"
/>
<path stroke="#808080" vector-effect="non-scaling-stroke" d="
  M 333.12 222.50
  A 0.53 0.53 0.0 0 0 332.59 221.97
  L 308.29 221.97
  A 0.53 0.53 0.0 0 0 307.76 222.50
  L 307.76 246.82
  A 0.53 0.53 0.0 0 0 308.29 247.35
  L 332.59 247.35
  A 0.53 0.53 0.0 0 0 333.12 246.82
  L 333.12 222.50"
/>
<path stroke="#808080" vector-effect="non-scaling-stroke" d="
  M 341.00 253.93
  A 0.51 0.51 0.0 0 0 340.49 253.42
  L 300.33 253.42
  A 0.51 0.51 0.0 0 0 299.82 253.93
  L 299.82 394.73
  A 0.51 0.51 0.0 0 0 300.33 395.24
  L 340.49 395.24
  A 0.51 0.51 0.0 0 0 341.00 394.73
  L 341.00 253.93"
/>
<path stroke="#808080" vector-effect="non-scaling-stroke" d="
  M 350.13 401.57
  A 0.36 0.36 0.0 0 0 349.77 401.21
  L 291.11 401.21
  A 0.36 0.36 0.0 0 0 290.75 401.57
  L 290.75 427.25
  A 0.36 0.36 0.0 0 0 291.11 427.61
  L 349.77 427.61
  A 0.36 0.36 0.0 0 0 350.13 427.25
  L 350.13 401.57"
/>
<path stroke="#808080" vector-effect="non-scaling-stroke" d="
  M 211.46 426.09
  L 210.47 426.92
  Q 209.65 427.61 210.72 427.62
  L 214.09 427.63
  Q 214.67 427.63 214.40 427.12
  Q 213.53 425.42 213.77 423.10
  Q 217.84 384.88 226.95 352.86
  Q 227.42 351.19 226.35 352.56
  C 212.49 370.20 208.80 393.12 210.82 415.83
  Q 211.22 420.37 212.00 424.61
  A 1.58 1.56 -25.4 0 1 211.46 426.09"
/>
<path stroke="#808080" vector-effect="non-scaling-stroke" d="
  M 224.81 427.27
  C 225.22 411.40 229.31 394.57 238.90 382.03
  Q 240.00 380.59 238.56 381.68
  C 228.23 389.53 221.04 406.57 220.26 419.93
  Q 220.02 424.00 218.83 427.19
  Q 218.66 427.66 219.15 427.65
  L 224.51 427.56
  Q 224.80 427.56 224.81 427.27"
/>
<path stroke="#808080" vector-effect="non-scaling-stroke" d="
  M 208.08 427.37
  Q 206.48 426.29 205.98 424.96
  C 201.82 414.01 197.97 403.08 192.17 392.96
  Q 188.73 386.95 184.02 383.05
  Q 182.43 381.72 183.34 383.59
  Q 193.32 404.07 199.05 427.06
  Q 199.19 427.62 199.77 427.62
  L 208.01 427.59
  A 0.12 0.12 0.0 0 0 208.08 427.37"
/>
<path stroke="#808080" vector-effect="non-scaling-stroke" d="
  M 402.79 382.97
  C 411.70 395.41 415.80 411.71 416.08 426.95
  Q 416.09 427.56 416.70 427.56
  L 421.55 427.63
  Q 422.55 427.64 421.97 426.82
  C 421.55 426.22 421.32 425.48 421.29 424.76
  C 420.58 409.13 415.16 393.04 403.45 382.38
  Q 400.33 379.53 402.79 382.97"
/>
<path stroke="#808080" vector-effect="non-scaling-stroke" d="
  M 441.77 393.47
  C 434.98 402.57 429.07 414.32 426.95 425.80
  Q 426.80 426.62 426.27 427.22
  A 0.26 0.26 0.0 0 0 426.47 427.65
  L 433.55 427.55
  A 0.61 0.60 6.1 0 0 434.13 427.09
  Q 439.03 407.08 447.85 387.73
  Q 448.50 386.31 447.34 387.35
  Q 444.30 390.09 441.77 393.47"
/>
<path stroke="#808080" vector-effect="non-scaling-stroke" d="
  M 182.37 427.10
  C 180.74 422.92 178.76 418.75 176.50 414.86
  Q 175.56 413.23 175.99 415.06
  Q 177.37 420.93 178.01 427.17
  Q 178.06 427.63 178.52 427.62
  L 182.03 427.59
  A 0.36 0.36 0.0 0 0 182.37 427.10"
/>
<path stroke="#808080" vector-effect="non-scaling-stroke" d="
  M 243.20 427.55
  L 246.90 427.62
  A 0.32 0.31 -85.7 0 0 247.21 427.35
  L 249.25 414.95
  Q 249.43 413.85 248.88 414.82
  Q 245.60 420.55 242.97 427.21
  A 0.25 0.25 0.0 0 0 243.20 427.55"
/>
<path stroke="#808080" vector-effect="non-scaling-stroke" d="
  M 397.92 427.30
  Q 395.06 419.62 391.94 414.66
  Q 391.53 414.00 391.65 414.73
  L 393.70 427.30
  A 0.38 0.37 85.5 0 0 394.07 427.62
  L 397.72 427.59
  Q 398.02 427.59 397.92 427.30"
/>
</g>
<path fill="#ffffff" d="
  M 0.00 0.00
  L 612.00 0.00
  L 612.00 612.00
  L 0.00 612.00
  L 0.00 0.00
  Z
  M 301.76 222.56
  L 301.75 247.00
  A 0.48 0.47 3.7 0 1 301.21 247.47
  C 298.69 247.13 293.88 246.71 293.88 250.49
  Q 293.87 325.47 293.82 394.53
  Q 293.81 395.33 293.02 395.29
  Q 290.53 395.16 287.78 395.29
  Q 284.74 395.43 284.74 398.47
  Q 284.77 415.25 284.76 430.64
  A 2.93 2.92 -90.0 0 0 287.68 433.57
  L 352.82 433.58
  Q 356.10 433.58 356.13 430.30
  Q 356.27 415.19 356.16 398.15
  C 356.13 394.12 349.88 395.27 347.50 395.23
  A 0.51 0.50 0.6 0 1 347.00 394.73
  L 347.00 250.21
  A 2.83 2.83 0.0 0 0 344.21 247.38
  L 339.89 247.32
  Q 339.22 247.31 339.22 246.64
  L 339.21 222.51
  Q 339.21 221.99 339.74 221.99
  L 366.97 221.98
  A 2.81 2.81 0.0 0 0 369.78 219.11
  Q 369.62 210.73 369.84 201.07
  Q 369.98 195.23 368.39 192.19
  Q 365.67 186.97 359.60 184.92
  Q 321.23 171.96 281.86 184.69
  C 274.71 187.00 271.01 192.25 271.05 199.77
  Q 271.11 208.83 271.05 217.50
  Q 271.04 219.32 271.76 220.99
  A 1.14 1.12 85.2 0 0 272.49 221.62
  Q 273.77 221.99 275.07 221.99
  Q 288.40 222.00 301.17 221.97
  Q 301.77 221.96 301.76 222.56
  Z
  M 225.83 187.16
  A 4.59 4.59 0.0 0 0 221.24 182.57
  A 4.59 4.59 0.0 0 0 216.65 187.16
  A 4.59 4.59 0.0 0 0 221.24 191.75
  A 4.59 4.59 0.0 0 0 225.83 187.16
  Z
  M 424.28 187.15
  A 4.58 4.58 0.0 0 0 419.70 182.57
  A 4.58 4.58 0.0 0 0 415.12 187.15
  A 4.58 4.58 0.0 0 0 419.70 191.73
  A 4.58 4.58 0.0 0 0 424.28 187.15
  Z
  M 238.84 200.19
  A 4.58 4.58 0.0 0 0 234.26 195.61
  A 4.58 4.58 0.0 0 0 229.68 200.19
  A 4.58 4.58 0.0 0 0 234.26 204.77
  A 4.58 4.58 0.0 0 0 238.84 200.19
  Z
  M 411.27 200.19
  A 4.58 4.58 0.0 0 0 406.69 195.61
  A 4.58 4.58 0.0 0 0 402.11 200.19
  A 4.58 4.58 0.0 0 0 406.69 204.77
  A 4.58 4.58 0.0 0 0 411.27 200.19
  Z
  M 251.88 213.19
  A 4.60 4.60 0.0 0 0 247.28 208.59
  A 4.60 4.60 0.0 0 0 242.68 213.19
  A 4.60 4.60 0.0 0 0 247.28 217.79
  A 4.60 4.60 0.0 0 0 251.88 213.19
  Z
  M 398.26 213.19
  A 4.59 4.59 0.0 0 0 393.67 208.60
  A 4.59 4.59 0.0 0 0 389.08 213.19
  A 4.59 4.59 0.0 0 0 393.67 217.78
  A 4.59 4.59 0.0 0 0 398.26 213.19
  Z
  M 225.83 213.19
  A 4.59 4.59 0.0 0 0 221.24 208.60
  A 4.59 4.59 0.0 0 0 216.65 213.19
  A 4.59 4.59 0.0 0 0 221.24 217.78
  A 4.59 4.59 0.0 0 0 225.83 213.19
  Z
  M 424.29 213.20
  A 4.58 4.58 0.0 0 0 419.71 208.62
  A 4.58 4.58 0.0 0 0 415.13 213.20
  A 4.58 4.58 0.0 0 0 419.71 217.78
  A 4.58 4.58 0.0 0 0 424.29 213.20
  Z
  M 238.85 226.23
  A 4.58 4.58 0.0 0 0 234.27 221.65
  A 4.58 4.58 0.0 0 0 229.69 226.23
  A 4.58 4.58 0.0 0 0 234.27 230.81
  A 4.58 4.58 0.0 0 0 238.85 226.23
  Z
  M 264.89 226.22
  A 4.59 4.59 0.0 0 0 260.30 221.63
  A 4.59 4.59 0.0 0 0 255.71 226.22
  A 4.59 4.59 0.0 0 0 260.30 230.81
  A 4.59 4.59 0.0 0 0 264.89 226.22
  Z
  M 385.20 226.23
  A 4.57 4.57 0.0 0 0 380.63 221.66
  A 4.57 4.57 0.0 0 0 376.06 226.23
  A 4.57 4.57 0.0 0 0 380.63 230.80
  A 4.57 4.57 0.0 0 0 385.20 226.23
  Z
  M 411.30 226.21
  A 4.60 4.60 0.0 0 0 406.70 221.61
  A 4.60 4.60 0.0 0 0 402.10 226.21
  A 4.60 4.60 0.0 0 0 406.70 230.81
  A 4.60 4.60 0.0 0 0 411.30 226.21
  Z
  M 424.29 239.24
  A 4.59 4.59 0.0 0 0 419.70 234.65
  A 4.59 4.59 0.0 0 0 415.11 239.24
  A 4.59 4.59 0.0 0 0 419.70 243.83
  A 4.59 4.59 0.0 0 0 424.29 239.24
  Z
  M 225.84 239.24
  A 4.60 4.60 0.0 0 0 221.24 234.64
  A 4.60 4.60 0.0 0 0 216.64 239.24
  A 4.60 4.60 0.0 0 0 221.24 243.84
  A 4.60 4.60 0.0 0 0 225.84 239.24
  Z
  M 251.88 239.24
  A 4.60 4.60 0.0 0 0 247.28 234.64
  A 4.60 4.60 0.0 0 0 242.68 239.24
  A 4.60 4.60 0.0 0 0 247.28 243.84
  A 4.60 4.60 0.0 0 0 251.88 239.24
  Z
  M 277.88 239.23
  A 4.56 4.56 0.0 0 0 273.32 234.67
  A 4.56 4.56 0.0 0 0 268.76 239.23
  A 4.56 4.56 0.0 0 0 273.32 243.79
  A 4.56 4.56 0.0 0 0 277.88 239.23
  Z
  M 372.22 239.24
  A 4.58 4.58 0.0 0 0 367.64 234.66
  A 4.58 4.58 0.0 0 0 363.06 239.24
  A 4.58 4.58 0.0 0 0 367.64 243.82
  A 4.58 4.58 0.0 0 0 372.22 239.24
  Z
  M 398.28 239.23
  A 4.60 4.60 0.0 0 0 393.68 234.63
  A 4.60 4.60 0.0 0 0 389.08 239.23
  A 4.60 4.60 0.0 0 0 393.68 243.83
  A 4.60 4.60 0.0 0 0 398.28 239.23
  Z
  M 238.87 252.24
  A 4.59 4.59 0.0 0 0 234.28 247.65
  A 4.59 4.59 0.0 0 0 229.69 252.24
  A 4.59 4.59 0.0 0 0 234.28 256.83
  A 4.59 4.59 0.0 0 0 238.87 252.24
  Z
  M 264.87 252.26
  A 4.58 4.58 0.0 0 0 260.29 247.68
  A 4.58 4.58 0.0 0 0 255.71 252.26
  A 4.58 4.58 0.0 0 0 260.29 256.84
  A 4.58 4.58 0.0 0 0 264.87 252.26
  Z
  M 385.22 252.26
  A 4.58 4.58 0.0 0 0 380.64 247.68
  A 4.58 4.58 0.0 0 0 376.06 252.26
  A 4.58 4.58 0.0 0 0 380.64 256.84
  A 4.58 4.58 0.0 0 0 385.22 252.26
  Z
  M 411.28 252.24
  A 4.60 4.60 0.0 0 0 406.68 247.64
  A 4.60 4.60 0.0 0 0 402.08 252.24
  A 4.60 4.60 0.0 0 0 406.68 256.84
  A 4.60 4.60 0.0 0 0 411.28 252.24
  Z
  M 225.82 265.29
  A 4.58 4.58 0.0 0 0 221.24 260.71
  A 4.58 4.58 0.0 0 0 216.66 265.29
  A 4.58 4.58 0.0 0 0 221.24 269.87
  A 4.58 4.58 0.0 0 0 225.82 265.29
  Z
  M 251.86 265.28
  A 4.58 4.58 0.0 0 0 247.28 260.70
  A 4.58 4.58 0.0 0 0 242.70 265.28
  A 4.58 4.58 0.0 0 0 247.28 269.86
  A 4.58 4.58 0.0 0 0 251.86 265.28
  Z
  M 398.26 265.27
  A 4.59 4.59 0.0 0 0 393.67 260.68
  A 4.59 4.59 0.0 0 0 389.08 265.27
  A 4.59 4.59 0.0 0 0 393.67 269.86
  A 4.59 4.59 0.0 0 0 398.26 265.27
  Z
  M 424.26 265.27
  A 4.57 4.57 0.0 0 0 419.69 260.70
  A 4.57 4.57 0.0 0 0 415.12 265.27
  A 4.57 4.57 0.0 0 0 419.69 269.84
  A 4.57 4.57 0.0 0 0 424.26 265.27
  Z
  M 238.86 278.29
  A 4.58 4.58 0.0 0 0 234.28 273.71
  A 4.58 4.58 0.0 0 0 229.70 278.29
  A 4.58 4.58 0.0 0 0 234.28 282.87
  A 4.58 4.58 0.0 0 0 238.86 278.29
  Z
  M 411.27 278.29
  A 4.58 4.58 0.0 0 0 406.69 273.71
  A 4.58 4.58 0.0 0 0 402.11 278.29
  A 4.58 4.58 0.0 0 0 406.69 282.87
  A 4.58 4.58 0.0 0 0 411.27 278.29
  Z
  M 225.81 291.30
  A 4.57 4.57 0.0 0 0 221.24 286.73
  A 4.57 4.57 0.0 0 0 216.67 291.30
  A 4.57 4.57 0.0 0 0 221.24 295.87
  A 4.57 4.57 0.0 0 0 225.81 291.30
  Z
  M 424.26 291.30
  A 4.57 4.57 0.0 0 0 419.69 286.73
  A 4.57 4.57 0.0 0 0 415.12 291.30
  A 4.57 4.57 0.0 0 0 419.69 295.87
  A 4.57 4.57 0.0 0 0 424.26 291.30
  Z
  M 225.18 386.87
  Q 229.41 362.97 237.12 341.77
  C 238.32 338.46 235.08 336.16 232.45 338.26
  C 213.13 353.73 204.49 377.00 204.31 401.39
  Q 204.29 403.96 203.32 401.58
  C 199.47 392.13 191.03 376.09 179.72 375.27
  C 176.94 375.07 172.67 376.08 174.69 379.94
  Q 188.02 405.37 193.74 430.95
  Q 194.33 433.59 197.15 433.59
  Q 212.16 433.54 227.56 433.59
  Q 230.78 433.60 230.78 430.26
  C 230.78 407.58 238.69 383.07 259.33 372.31
  A 2.45 2.45 0.0 0 0 260.64 370.32
  C 260.79 368.17 259.24 366.46 257.07 366.86
  C 245.50 368.96 234.94 374.76 227.96 383.89
  Q 226.73 385.50 225.57 387.04
  Q 225.01 387.80 225.18 386.87
  Z
  M 425.14 409.66
  Q 424.41 407.25 423.67 404.77
  C 417.95 385.41 404.68 370.75 384.20 366.95
  C 380.55 366.28 378.74 370.71 381.77 372.34
  C 402.96 383.69 410.09 408.41 410.21 430.92
  A 2.66 2.66 0.0 0 0 412.87 433.57
  Q 424.89 433.60 436.34 433.60
  Q 438.79 433.60 439.30 431.35
  Q 445.46 404.43 458.68 379.71
  C 459.93 377.39 457.75 374.92 455.28 375.62
  C 441.51 379.56 430.99 396.80 425.68 409.69
  Q 425.37 410.44 425.14 409.66
  Z
  M 155.50 397.13
  C 169.10 400.50 171.18 419.79 172.32 431.29
  A 2.52 2.51 -2.8 0 0 174.83 433.56
  L 186.98 433.57
  A 2.54 2.54 0.0 0 0 189.52 430.92
  C 189.43 428.61 188.52 426.79 187.76 424.65
  C 182.59 410.03 172.26 395.50 156.92 391.30
  A 2.66 2.62 -45.4 0 0 155.46 391.32
  Q 153.29 391.99 153.04 393.42
  Q 152.53 396.39 155.50 397.13
  Z
  M 253.61 425.80
  C 254.59 415.34 258.42 399.96 269.82 397.14
  Q 273.01 396.35 272.29 393.17
  Q 271.94 391.60 268.83 391.33
  A 2.67 2.64 37.9 0 0 267.74 391.46
  C 251.17 396.85 240.78 412.86 236.17 428.94
  C 235.31 431.95 236.46 433.65 239.49 433.62
  Q 244.28 433.57 248.89 433.55
  C 250.89 433.54 252.69 433.61 253.01 431.17
  Q 253.36 428.45 253.61 425.80
  Z
  M 373.48 398.01
  C 384.21 401.78 387.22 421.00 387.73 430.67
  C 387.81 432.20 388.80 433.53 390.42 433.56
  Q 395.79 433.65 402.18 433.55
  C 404.66 433.51 405.53 431.52 404.90 429.31
  C 400.20 413.00 389.92 396.97 373.28 391.44
  Q 370.58 390.54 368.91 392.60
  Q 368.79 392.75 368.74 392.94
  Q 367.85 395.86 370.35 396.84
  Q 371.91 397.46 373.48 398.01
  Z"
/>
<path fill="#000000" d="
  M 301.17 221.97
  Q 288.40 222.00 275.07 221.99
  Q 273.77 221.99 272.49 221.62
  A 1.14 1.12 85.2 0 1 271.76 220.99
  Q 271.04 219.32 271.05 217.50
  Q 271.11 208.83 271.05 199.77
  C 271.01 192.25 274.71 187.00 281.86 184.69
  Q 321.23 171.96 359.60 184.92
  Q 365.67 186.97 368.39 192.19
  Q 369.98 195.23 369.84 201.07
  Q 369.62 210.73 369.78 219.11
  A 2.81 2.81 0.0 0 1 366.97 221.98
  L 339.74 221.99
  Q 339.21 221.99 339.21 222.51
  L 339.22 246.64
  Q 339.22 247.31 339.89 247.32
  L 344.21 247.38
  A 2.83 2.83 0.0 0 1 347.00 250.21
  L 347.00 394.73
  A 0.51 0.50 0.6 0 0 347.50 395.23
  C 349.88 395.27 356.13 394.12 356.16 398.15
  Q 356.27 415.19 356.13 430.30
  Q 356.10 433.58 352.82 433.58
  L 287.68 433.57
  A 2.93 2.92 90.0 0 1 284.76 430.64
  Q 284.77 415.25 284.74 398.47
  Q 284.74 395.43 287.78 395.29
  Q 290.53 395.16 293.02 395.29
  Q 293.81 395.33 293.82 394.53
  Q 293.87 325.47 293.88 250.49
  C 293.88 246.71 298.69 247.13 301.21 247.47
  A 0.48 0.47 3.7 0 0 301.75 247.00
  L 301.76 222.56
  Q 301.77 221.96 301.17 221.97
  Z
  M 357.76 190.57
  Q 320.25 178.20 283.05 190.64
  C 279.46 191.84 277.12 194.74 277.13 198.67
  Q 277.17 207.66 277.20 215.72
  A 0.33 0.33 0.0 0 0 277.53 216.04
  L 363.27 216.04
  A 0.49 0.49 0.0 0 0 363.76 215.55
  Q 363.75 207.59 363.78 198.31
  C 363.79 194.61 361.23 191.72 357.76 190.57
  Z
  M 333.12 222.50
  A 0.53 0.53 0.0 0 0 332.59 221.97
  L 308.29 221.97
  A 0.53 0.53 0.0 0 0 307.76 222.50
  L 307.76 246.82
  A 0.53 0.53 0.0 0 0 308.29 247.35
  L 332.59 247.35
  A 0.53 0.53 0.0 0 0 333.12 246.82
  L 333.12 222.50
  Z
  M 341.00 253.93
  A 0.51 0.51 0.0 0 0 340.49 253.42
  L 300.33 253.42
  A 0.51 0.51 0.0 0 0 299.82 253.93
  L 299.82 394.73
  A 0.51 0.51 0.0 0 0 300.33 395.24
  L 340.49 395.24
  A 0.51 0.51 0.0 0 0 341.00 394.73
  L 341.00 253.93
  Z
  M 350.13 401.57
  A 0.36 0.36 0.0 0 0 349.77 401.21
  L 291.11 401.21
  A 0.36 0.36 0.0 0 0 290.75 401.57
  L 290.75 427.25
  A 0.36 0.36 0.0 0 0 291.11 427.61
  L 349.77 427.61
  A 0.36 0.36 0.0 0 0 350.13 427.25
  L 350.13 401.57
  Z"
/>
<circle fill="#000000" cx="221.24" cy="187.16" r="4.59"/>
<circle fill="#000000" cx="419.70" cy="187.15" r="4.58"/>
<path fill="#ffffff" d="
  M 357.76 190.57
  C 361.23 191.72 363.79 194.61 363.78 198.31
  Q 363.75 207.59 363.76 215.55
  A 0.49 0.49 0.0 0 1 363.27 216.04
  L 277.53 216.04
  A 0.33 0.33 0.0 0 1 277.20 215.72
  Q 277.17 207.66 277.13 198.67
  C 277.12 194.74 279.46 191.84 283.05 190.64
  Q 320.25 178.20 357.76 190.57
  Z"
/>
<circle fill="#000000" cx="234.26" cy="200.19" r="4.58"/>
<circle fill="#000000" cx="406.69" cy="200.19" r="4.58"/>
<circle fill="#000000" cx="247.28" cy="213.19" r="4.60"/>
<circle fill="#000000" cx="393.67" cy="213.19" r="4.59"/>
<circle fill="#000000" cx="221.24" cy="213.19" r="4.59"/>
<circle fill="#000000" cx="419.71" cy="213.20" r="4.58"/>
<circle fill="#000000" cx="234.27" cy="226.23" r="4.58"/>
<circle fill="#000000" cx="260.30" cy="226.22" r="4.59"/>
<rect fill="#ffffff" x="307.76" y="221.97" width="25.36" height="25.38" rx="0.53"/>
<circle fill="#000000" cx="380.63" cy="226.23" r="4.57"/>
<circle fill="#000000" cx="406.70" cy="226.21" r="4.60"/>
<circle fill="#000000" cx="419.70" cy="239.24" r="4.59"/>
<circle fill="#000000" cx="221.24" cy="239.24" r="4.60"/>
<circle fill="#000000" cx="247.28" cy="239.24" r="4.60"/>
<circle fill="#000000" cx="273.32" cy="239.23" r="4.56"/>
<circle fill="#000000" cx="367.64" cy="239.24" r="4.58"/>
<circle fill="#000000" cx="393.68" cy="239.23" r="4.60"/>
<circle fill="#000000" cx="234.28" cy="252.24" r="4.59"/>
<circle fill="#000000" cx="260.29" cy="252.26" r="4.58"/>
<circle fill="#000000" cx="380.64" cy="252.26" r="4.58"/>
<circle fill="#000000" cx="406.68" cy="252.24" r="4.60"/>
<rect fill="#ffffff" x="299.82" y="253.42" width="41.18" height="141.82" rx="0.51"/>
<circle fill="#000000" cx="221.24" cy="265.29" r="4.58"/>
<circle fill="#000000" cx="247.28" cy="265.28" r="4.58"/>
<circle fill="#000000" cx="393.67" cy="265.27" r="4.59"/>
<circle fill="#000000" cx="419.69" cy="265.27" r="4.57"/>
<circle fill="#000000" cx="234.28" cy="278.29" r="4.58"/>
<circle fill="#000000" cx="406.69" cy="278.29" r="4.58"/>
<circle fill="#000000" cx="221.24" cy="291.30" r="4.57"/>
<circle fill="#000000" cx="419.69" cy="291.30" r="4.57"/>
<path fill="#000000" d="
  M 225.57 387.04
  Q 226.73 385.50 227.96 383.89
  C 234.94 374.76 245.50 368.96 257.07 366.86
  C 259.24 366.46 260.79 368.17 260.64 370.32
  A 2.45 2.45 0.0 0 1 259.33 372.31
  C 238.69 383.07 230.78 407.58 230.78 430.26
  Q 230.78 433.60 227.56 433.59
  Q 212.16 433.54 197.15 433.59
  Q 194.33 433.59 193.74 430.95
  Q 188.02 405.37 174.69 379.94
  C 172.67 376.08 176.94 375.07 179.72 375.27
  C 191.03 376.09 199.47 392.13 203.32 401.58
  Q 204.29 403.96 204.31 401.39
  C 204.49 377.00 213.13 353.73 232.45 338.26
  C 235.08 336.16 238.32 338.46 237.12 341.77
  Q 229.41 362.97 225.18 386.87
  Q 225.01 387.80 225.57 387.04
  Z
  M 211.46 426.09
  L 210.47 426.92
  Q 209.65 427.61 210.72 427.62
  L 214.09 427.63
  Q 214.67 427.63 214.40 427.12
  Q 213.53 425.42 213.77 423.10
  Q 217.84 384.88 226.95 352.86
  Q 227.42 351.19 226.35 352.56
  C 212.49 370.20 208.80 393.12 210.82 415.83
  Q 211.22 420.37 212.00 424.61
  A 1.58 1.56 -25.4 0 1 211.46 426.09
  Z
  M 224.81 427.27
  C 225.22 411.40 229.31 394.57 238.90 382.03
  Q 240.00 380.59 238.56 381.68
  C 228.23 389.53 221.04 406.57 220.26 419.93
  Q 220.02 424.00 218.83 427.19
  Q 218.66 427.66 219.15 427.65
  L 224.51 427.56
  Q 224.80 427.56 224.81 427.27
  Z
  M 208.08 427.37
  Q 206.48 426.29 205.98 424.96
  C 201.82 414.01 197.97 403.08 192.17 392.96
  Q 188.73 386.95 184.02 383.05
  Q 182.43 381.72 183.34 383.59
  Q 193.32 404.07 199.05 427.06
  Q 199.19 427.62 199.77 427.62
  L 208.01 427.59
  A 0.12 0.12 0.0 0 0 208.08 427.37
  Z"
/>
<path fill="#ffffff" d="
  M 212.00 424.61
  Q 211.22 420.37 210.82 415.83
  C 208.80 393.12 212.49 370.20 226.35 352.56
  Q 227.42 351.19 226.95 352.86
  Q 217.84 384.88 213.77 423.10
  Q 213.53 425.42 214.40 427.12
  Q 214.67 427.63 214.09 427.63
  L 210.72 427.62
  Q 209.65 427.61 210.47 426.92
  L 211.46 426.09
  A 1.58 1.56 -25.4 0 0 212.00 424.61
  Z"
/>
<path fill="#000000" d="
  M 425.14 409.66
  Q 425.37 410.44 425.68 409.69
  C 430.99 396.80 441.51 379.56 455.28 375.62
  C 457.75 374.92 459.93 377.39 458.68 379.71
  Q 445.46 404.43 439.30 431.35
  Q 438.79 433.60 436.34 433.60
  Q 424.89 433.60 412.87 433.57
  A 2.66 2.66 0.0 0 1 410.21 430.92
  C 410.09 408.41 402.96 383.69 381.77 372.34
  C 378.74 370.71 380.55 366.28 384.20 366.95
  C 404.68 370.75 417.95 385.41 423.67 404.77
  Q 424.41 407.25 425.14 409.66
  Z
  M 402.79 382.97
  C 411.70 395.41 415.80 411.71 416.08 426.95
  Q 416.09 427.56 416.70 427.56
  L 421.55 427.63
  Q 422.55 427.64 421.97 426.82
  C 421.55 426.22 421.32 425.48 421.29 424.76
  C 420.58 409.13 415.16 393.04 403.45 382.38
  Q 400.33 379.53 402.79 382.97
  Z
  M 441.77 393.47
  C 434.98 402.57 429.07 414.32 426.95 425.80
  Q 426.80 426.62 426.27 427.22
  A 0.26 0.26 0.0 0 0 426.47 427.65
  L 433.55 427.55
  A 0.61 0.60 6.1 0 0 434.13 427.09
  Q 439.03 407.08 447.85 387.73
  Q 448.50 386.31 447.34 387.35
  Q 444.30 390.09 441.77 393.47
  Z"
/>
<path fill="#ffffff" d="
  M 416.08 426.95
  C 415.80 411.71 411.70 395.41 402.79 382.97
  Q 400.33 379.53 403.45 382.38
  C 415.16 393.04 420.58 409.13 421.29 424.76
  C 421.32 425.48 421.55 426.22 421.97 426.82
  Q 422.55 427.64 421.55 427.63
  L 416.70 427.56
  Q 416.09 427.56 416.08 426.95
  Z"
/>
<path fill="#ffffff" d="
  M 238.90 382.03
  C 229.31 394.57 225.22 411.40 224.81 427.27
  Q 224.80 427.56 224.51 427.56
  L 219.15 427.65
  Q 218.66 427.66 218.83 427.19
  Q 220.02 424.00 220.26 419.93
  C 221.04 406.57 228.23 389.53 238.56 381.68
  Q 240.00 380.59 238.90 382.03
  Z"
/>
<path fill="#ffffff" d="
  M 208.08 427.37
  A 0.12 0.12 0.0 0 1 208.01 427.59
  L 199.77 427.62
  Q 199.19 427.62 199.05 427.06
  Q 193.32 404.07 183.34 383.59
  Q 182.43 381.72 184.02 383.05
  Q 188.73 386.95 192.17 392.96
  C 197.97 403.08 201.82 414.01 205.98 424.96
  Q 206.48 426.29 208.08 427.37
  Z"
/>
<path fill="#ffffff" d="
  M 426.95 425.80
  C 429.07 414.32 434.98 402.57 441.77 393.47
  Q 444.30 390.09 447.34 387.35
  Q 448.50 386.31 447.85 387.73
  Q 439.03 407.08 434.13 427.09
  A 0.61 0.60 6.1 0 1 433.55 427.55
  L 426.47 427.65
  A 0.26 0.26 0.0 0 1 426.27 427.22
  Q 426.80 426.62 426.95 425.80
  Z"
/>
<path fill="#000000" d="
  M 172.32 431.29
  C 171.18 419.79 169.10 400.50 155.50 397.13
  Q 152.53 396.39 153.04 393.42
  Q 153.29 391.99 155.46 391.32
  A 2.66 2.62 -45.4 0 1 156.92 391.30
  C 172.26 395.50 182.59 410.03 187.76 424.65
  C 188.52 426.79 189.43 428.61 189.52 430.92
  A 2.54 2.54 0.0 0 1 186.98 433.57
  L 174.83 433.56
  A 2.52 2.51 -2.8 0 1 172.32 431.29
  Z
  M 182.37 427.10
  C 180.74 422.92 178.76 418.75 176.50 414.86
  Q 175.56 413.23 175.99 415.06
  Q 177.37 420.93 178.01 427.17
  Q 178.06 427.63 178.52 427.62
  L 182.03 427.59
  A 0.36 0.36 0.0 0 0 182.37 427.10
  Z"
/>
<path fill="#000000" d="
  M 269.82 397.14
  C 258.42 399.96 254.59 415.34 253.61 425.80
  Q 253.36 428.45 253.01 431.17
  C 252.69 433.61 250.89 433.54 248.89 433.55
  Q 244.28 433.57 239.49 433.62
  C 236.46 433.65 235.31 431.95 236.17 428.94
  C 240.78 412.86 251.17 396.85 267.74 391.46
  A 2.67 2.64 37.9 0 1 268.83 391.33
  Q 271.94 391.60 272.29 393.17
  Q 273.01 396.35 269.82 397.14
  Z
  M 243.20 427.55
  L 246.90 427.62
  A 0.32 0.31 -85.7 0 0 247.21 427.35
  L 249.25 414.95
  Q 249.43 413.85 248.88 414.82
  Q 245.60 420.55 242.97 427.21
  A 0.25 0.25 0.0 0 0 243.20 427.55
  Z"
/>
<path fill="#000000" d="
  M 373.48 398.01
  Q 371.91 397.46 370.35 396.84
  Q 367.85 395.86 368.74 392.94
  Q 368.79 392.75 368.91 392.60
  Q 370.58 390.54 373.28 391.44
  C 389.92 396.97 400.20 413.00 404.90 429.31
  C 405.53 431.52 404.66 433.51 402.18 433.55
  Q 395.79 433.65 390.42 433.56
  C 388.80 433.53 387.81 432.20 387.73 430.67
  C 387.22 421.00 384.21 401.78 373.48 398.01
  Z
  M 397.92 427.30
  Q 395.06 419.62 391.94 414.66
  Q 391.53 414.00 391.65 414.73
  L 393.70 427.30
  A 0.38 0.37 85.5 0 0 394.07 427.62
  L 397.72 427.59
  Q 398.02 427.59 397.92 427.30
  Z"
/>
<rect fill="#ffffff" x="290.75" y="401.21" width="59.38" height="26.40" rx="0.36"/>
<path fill="#ffffff" d="
  M 176.50 414.86
  C 178.76 418.75 180.74 422.92 182.37 427.10
  A 0.36 0.36 0.0 0 1 182.03 427.59
  L 178.52 427.62
  Q 178.06 427.63 178.01 427.17
  Q 177.37 420.93 175.99 415.06
  Q 175.56 413.23 176.50 414.86
  Z"
/>
<path fill="#ffffff" d="
  M 242.97 427.21
  Q 245.60 420.55 248.88 414.82
  Q 249.43 413.85 249.25 414.95
  L 247.21 427.35
  A 0.32 0.31 -85.7 0 1 246.90 427.62
  L 243.20 427.55
  A 0.25 0.25 0.0 0 1 242.97 427.21
  Z"
/>
<path fill="#ffffff" d="
  M 397.92 427.30
  Q 398.02 427.59 397.72 427.59
  L 394.07 427.62
  A 0.38 0.37 85.5 0 1 393.70 427.30
  L 391.65 414.73
  Q 391.53 414.00 391.94 414.66
  Q 395.06 419.62 397.92 427.30
  Z"
/>
</svg>
