<?xml version="1.0" encoding="UTF-8" standalone="no"?>
<!DOCTYPE svg PUBLIC "-//W3C//DTD SVG 1.1//EN" "http://www.w3.org/Graphics/SVG/1.1/DTD/svg11.dtd">
<svg xmlns="http://www.w3.org/2000/svg" version="1.1" viewBox="0.00 0.00 237.00 215.00">
<path fill="#018752" d="
  M 58.01 60.92
  Q 58.09 59.14 56.93 57.57
  Q 56.49 56.98 57.19 57.20
  Q 59.87 58.04 63.02 57.69
  Q 63.42 57.64 63.52 57.25
  Q 63.95 55.60 63.00 54.66
  Q 62.38 54.04 63.25 54.03
  L 67.02 53.98
  Q 68.85 53.95 68.10 52.29
  Q 66.81 49.41 65.00 46.89
  Q 64.63 46.37 65.27 46.40
  L 69.48 46.58
  A 0.64 0.64 0.0 0 0 70.11 45.74
  Q 66.97 36.27 62.39 26.83
  Q 62.23 26.50 62.51 26.74
  Q 63.71 27.79 64.67 29.00
  Q 75.36 42.48 88.94 61.84
  C 92.12 66.37 95.63 70.64 99.03 75.11
  A 11.48 11.40 86.5 0 0 102.32 78.04
  Q 117.69 87.18 133.33 96.42
  Q 134.73 97.25 136.19 97.46
  A 1.11 1.11 0.0 0 0 137.36 95.89
  L 133.32 87.29
  A 0.56 0.56 0.0 0 1 134.01 86.53
  L 139.53 88.43
  A 0.49 0.49 0.0 0 0 140.18 88.00
  Q 140.36 85.33 138.99 82.72
  Q 136.18 77.38 133.22 71.82
  Q 132.22 69.93 131.74 67.77
  A 0.37 0.36 -86.2 0 1 132.22 67.34
  Q 133.82 67.94 135.10 68.92
  Q 138.64 71.61 142.24 74.37
  A 0.99 0.98 -61.3 0 0 143.77 73.92
  C 144.61 71.60 142.29 67.15 141.16 65.07
  Q 137.20 57.80 134.89 51.03
  Q 134.64 50.29 135.34 50.64
  Q 138.64 52.25 141.75 54.52
  Q 142.19 54.85 142.72 55.00
  Q 143.25 55.16 143.74 55.00
  Q 145.51 54.45 144.61 52.83
  C 141.54 47.23 137.94 41.24 136.45 35.15
  Q 135.97 33.19 137.55 34.44
  Q 140.67 36.93 143.94 38.93
  Q 145.57 39.93 145.81 38.04
  Q 146.01 36.40 145.21 34.87
  C 141.00 26.91 136.76 18.91 134.92 10.20
  Q 134.78 9.56 134.98 8.97
  A 0.49 0.48 33.9 0 1 135.81 8.81
  C 142.32 16.28 149.15 23.96 156.13 30.53
  C 166.97 40.73 177.86 51.33 187.40 62.07
  C 189.69 64.64 190.04 70.13 189.76 73.78
  C 189.30 79.55 185.99 85.51 182.52 90.04
  C 176.24 98.25 167.71 106.96 164.77 116.41
  Q 164.04 118.77 164.57 122.57
  Q 164.94 125.22 167.16 127.19
  C 170.02 129.74 172.99 132.33 177.08 132.20
  C 178.23 132.16 178.96 132.89 180.02 132.95
  C 187.03 133.34 193.11 136.95 194.21 144.22
  Q 194.52 146.25 195.02 148.28
  Q 195.54 150.42 195.30 152.51
  Q 195.16 153.68 196.11 154.37
  L 204.51 160.51
  Q 205.08 160.93 204.38 161.02
  Q 202.08 161.35 200.25 160.70
  C 198.60 160.12 196.95 159.82 195.32 159.21
  A 0.72 0.72 0.0 0 0 194.34 159.88
  L 194.28 165.52
  Q 194.27 166.62 193.65 165.71
  Q 191.98 163.24 189.74 161.26
  Q 179.37 152.10 165.46 146.89
  Q 164.06 146.37 162.55 146.13
  C 159.80 145.69 157.59 144.73 154.73 145.58
  C 152.51 146.24 150.21 146.42 148.13 147.67
  Q 139.04 153.14 132.32 163.20
  C 126.00 172.67 119.74 183.10 110.14 188.92
  C 108.36 190.00 106.63 189.69 104.87 190.46
  Q 104.36 190.68 103.83 190.52
  C 101.68 189.89 99.51 189.94 97.43 189.12
  Q 89.64 186.03 82.41 181.11
  C 73.77 175.24 64.81 169.33 56.26 163.11
  C 46.12 155.74 35.11 149.62 24.33 143.10
  Q 22.82 142.18 24.55 141.83
  Q 27.44 141.23 30.65 141.51
  C 38.85 142.23 46.49 145.62 54.20 148.58
  Q 55.72 149.16 57.40 148.92
  A 0.81 0.81 0.0 0 0 58.04 147.83
  Q 57.46 146.32 56.08 145.32
  Q 52.57 142.81 50.07 139.34
  A 0.35 0.35 0.0 0 1 50.29 138.79
  Q 55.83 137.95 61.00 140.26
  Q 65.46 142.26 70.18 144.44
  C 71.66 145.12 73.14 145.43 74.74 145.22
  A 1.31 1.31 0.0 0 0 75.51 143.01
  C 72.96 140.36 68.83 136.98 67.57 133.64
  Q 67.35 133.05 67.98 133.07
  C 69.87 133.12 71.71 132.81 73.50 133.62
  C 74.72 134.17 76.14 134.11 77.50 134.62
  Q 85.05 137.45 91.03 138.69
  Q 92.79 139.05 94.47 138.59
  Q 96.31 138.07 95.01 136.67
  L 88.39 129.53
  Q 86.92 127.94 89.08 128.11
  C 94.58 128.55 99.70 130.55 104.91 132.24
  Q 106.17 132.65 106.60 131.40
  Q 106.90 130.50 106.35 129.42
  Q 105.49 127.75 104.72 126.16
  A 0.63 0.63 0.0 0 1 105.28 125.25
  C 109.02 125.20 113.68 129.19 116.98 128.32
  A 1.23 1.22 64.7 0 0 117.66 126.41
  Q 109.50 115.25 98.72 103.32
  Q 92.02 95.91 85.59 90.74
  Q 82.23 88.04 77.03 85.69
  Q 48.74 72.92 18.55 59.24
  Q 16.73 58.41 18.69 58.79
  L 46.18 63.98
  Q 46.66 64.07 47.06 63.79
  Q 47.60 63.40 47.56 62.71
  Q 47.52 62.05 47.05 61.58
  Q 45.85 60.40 44.70 59.12
  Q 42.84 57.04 45.47 57.95
  Q 49.48 59.34 53.87 61.08
  Q 55.42 61.69 57.54 61.43
  Q 57.99 61.38 58.01 60.92
  Z"
/>
</svg>
